<svg width="41" height="40" viewBox="0 0 41 40" fill="none" xmlns="http://www.w3.org/2000/svg">
<rect x="0.5" width="40" height="40" rx="20" fill="#ECEEFF" fill-opacity="0.24"/>
<path opacity="0.4" d="M18.57 10.82L11.64 16.37C10.86 16.99 10.36 18.3 10.53 19.28L11.86 27.24C12.1 28.66 13.46 29.81 14.9 29.81H26.1C27.53 29.81 28.9 28.65 29.14 27.24L30.47 19.28C30.63 18.3 30.13 16.99 29.36 16.37L22.43 10.83C21.36 9.96996 19.63 9.96998 18.57 10.82Z" fill="#429BF4"/>
<path d="M20.5 23.5C21.8807 23.5 23 22.3807 23 21C23 19.6193 21.8807 18.5 20.5 18.5C19.1193 18.5 18 19.6193 18 21C18 22.3807 19.1193 23.5 20.5 23.5Z" fill="#429BF4"/>
</svg>
