<svg width="12" height="14" viewBox="0 0 12 14" fill="none" xmlns="http://www.w3.org/2000/svg">
<path opacity="0.4" d="M3.99983 12.2727L4.00004 12.2729C4.56291 12.8146 5.28154 13.0834 6 13.0834C6.7191 13.0834 7.43607 12.8142 7.99075 12.2754L7.9935 12.2727L7.9935 12.2727C9.85901 10.479 11.7026 7.83172 11.0153 4.79957L3.99983 12.2727ZM3.99983 12.2727C2.13482 10.4794 0.290609 7.82543 0.978019 4.7929L3.99983 12.2727ZM6 0.916687C8.09889 0.916687 10.4109 2.14086 11.0152 4.7992L0.978102 4.79253C1.58209 2.13583 3.89913 0.916687 5.99334 0.916687H5.99337H5.99341H5.99345H5.99349H5.99353H5.99357H5.99361H5.99364H5.99368H5.99372H5.99376H5.99379H5.99383H5.99387H5.9939H5.99394H5.99398H5.99401H5.99405H5.99409H5.99412H5.99416H5.99419H5.99423H5.99427H5.9943H5.99434H5.99437H5.99441H5.99444H5.99447H5.99451H5.99454H5.99458H5.99461H5.99465H5.99468H5.99471H5.99475H5.99478H5.99481H5.99485H5.99488H5.99491H5.99494H5.99498H5.99501H5.99504H5.99507H5.9951H5.99514H5.99517H5.9952H5.99523H5.99526H5.99529H5.99532H5.99535H5.99539H5.99542H5.99545H5.99548H5.99551H5.99554H5.99557H5.9956H5.99563H5.99566H5.99568H5.99571H5.99574H5.99577H5.9958H5.99583H5.99586H5.99589H5.99591H5.99594H5.99597H5.996H5.99603H5.99605H5.99608H5.99611H5.99614H5.99616H5.99619H5.99622H5.99624H5.99627H5.9963H5.99632H5.99635H5.99637H5.9964H5.99643H5.99645H5.99648H5.9965H5.99653H5.99655H5.99658H5.9966H5.99663H5.99665H5.99668H5.9967H5.99673H5.99675H5.99678H5.9968H5.99682H5.99685H5.99687H5.99689H5.99692H5.99694H5.99696H5.99699H5.99701H5.99703H5.99706H5.99708H5.9971H5.99712H5.99715H5.99717H5.99719H5.99721H5.99723H5.99726H5.99728H5.9973H5.99732H5.99734H5.99736H5.99738H5.9974H5.99742H5.99745H5.99747H5.99749H5.99751H5.99753H5.99755H5.99757H5.99759H5.99761H5.99763H5.99765H5.99767H5.99768H5.9977H5.99772H5.99774H5.99776H5.99778H5.9978H5.99782H5.99784H5.99785H5.99787H5.99789H5.99791H5.99793H5.99794H5.99796H5.99798H5.998H5.99802H5.99803H5.99805H5.99807H5.99808H5.9981H5.99812H5.99814H5.99815H5.99817H5.99818H5.9982H5.99822H5.99823H5.99825H5.99827H5.99828H5.9983H5.99831H5.99833H5.99834H5.99836H5.99837H5.99839H5.99841H5.99842H5.99844H5.99845H5.99846H5.99848H5.99849H5.99851H5.99852H5.99854H5.99855H5.99857H5.99858H5.99859H5.99861H5.99862H5.99863H5.99865H5.99866H5.99867H5.99869H5.9987H5.99871H5.99873H5.99874H5.99875H5.99877H5.99878H5.99879H5.9988H5.99882H5.99883H5.99884H5.99885H5.99886H5.99888H5.99889H5.9989H5.99891H5.99892H5.99894H5.99895H5.99896H5.99897H5.99898H5.99899H5.999H5.99901H5.99902H5.99904H5.99905H5.99906H5.99907H5.99908H5.99909H5.9991H5.99911H5.99912H5.99913H5.99914H5.99915H5.99916H5.99917H5.99918H5.99919H5.9992H5.99921H5.99922H5.99923H5.99924H5.99925H5.99925H5.99926H5.99927H5.99928H5.99929H5.9993H5.99931H5.99932H5.99932H5.99933H5.99934H5.99935H5.99936H5.99937H5.99937H5.99938H5.99939H5.9994H5.99941H5.99941H5.99942H5.99943H5.99944H5.99944H5.99945H5.99946H5.99947H5.99947H5.99948H5.99949H5.9995H5.9995H5.99951H5.99952H5.99952H5.99953H5.99954H5.99954H5.99955H5.99956H5.99956H5.99957H5.99957H5.99958H5.99959H5.99959H5.9996H5.99961H5.99961H5.99962H5.99962H5.99963H5.99963H5.99964H5.99965H5.99965H5.99966H5.99966H5.99967H5.99967H5.99968H5.99968H5.99969H5.99969H5.9997H5.9997H5.99971H5.99971H5.99972H5.99972H5.99973H5.99973H5.99974H5.99974H5.99975H5.99975H5.99975H5.99976H5.99976H5.99977H5.99977H5.99978H5.99978H5.99978H5.99979H5.99979H5.9998H5.9998H5.9998H5.99981H5.99981H5.99982H5.99983H5.99983H5.99984H5.99985H5.99985H5.99986H5.99986H5.99987H5.99988H5.99988H5.99989H5.99989H5.9999H5.9999H5.99991H5.99991H5.99991H5.99992H5.99992H5.99993H5.99993H5.99994H5.99994H5.99995H5.99995H5.99995H5.99996H5.99996H5.99997H5.99997H5.99998H5.99998H5.99998H5.99999H5.99999H5.99999H6H6Z" fill="#667085" stroke="#667085" stroke-width="1.5"/>
<path d="M7.34999 5.87338C7.34999 6.61896 6.74558 7.22338 5.99999 7.22338C5.25441 7.22338 4.64999 6.61896 4.64999 5.87338C4.64999 5.12779 5.25441 4.52338 5.99999 4.52338C6.74558 4.52338 7.34999 5.12779 7.34999 5.87338Z" fill="#667085" stroke="#667085" stroke-width="1.5"/>
</svg>
